<svg width="51" height="50" viewBox="0 0 51 50" fill="none" xmlns="http://www.w3.org/2000/svg">
<path d="M40.6587 46.875H37.5337V42.1875C37.5312 40.1163 36.7073 38.1306 35.2427 36.666C33.7781 35.2014 31.7924 34.3775 29.7212 34.375H20.3462C18.2749 34.3775 16.2893 35.2014 14.8247 36.666C13.3601 38.1306 12.5362 40.1163 12.5337 42.1875V46.875H9.40869V42.1875C9.41282 39.288 10.5665 36.5084 12.6168 34.4581C14.6671 32.4078 17.4467 31.2541 20.3462 31.25H29.7212C32.6207 31.2541 35.4003 32.4078 37.4506 34.4581C39.5009 36.5084 40.6546 39.288 40.6587 42.1875V46.875ZM7.84619 9.375C7.43179 9.375 7.03436 9.53962 6.74134 9.83265C6.44831 10.1257 6.28369 10.5231 6.28369 10.9375V25H9.40869V10.9375C9.40869 10.5231 9.24407 10.1257 8.95105 9.83265C8.65802 9.53962 8.26059 9.375 7.84619 9.375Z" fill="black"/>
<path d="M6.28369 3.125V6.25H14.0962V17.1875C14.0962 20.0883 15.2485 22.8703 17.2997 24.9215C19.3509 26.9727 22.1329 28.125 25.0337 28.125C27.9345 28.125 30.7165 26.9727 32.7677 24.9215C34.8188 22.8703 35.9712 20.0883 35.9712 17.1875V6.25H43.7837V3.125H6.28369ZM17.2212 6.25H32.8462V10.9375H17.2212V6.25ZM25.0337 25C22.9617 25 20.9745 24.1769 19.5094 22.7118C18.0443 21.2466 17.2212 19.2595 17.2212 17.1875V14.0625H32.8462V17.1875C32.8462 19.2595 32.0231 21.2466 30.558 22.7118C29.0928 24.1769 27.1057 25 25.0337 25Z" fill="black"/>
</svg>
