<svg width="53" height="52" viewBox="0 0 53 52" fill="none" xmlns="http://www.w3.org/2000/svg">
<path d="M47.7837 47.4523L40.1657 39.8343C42.2028 37.214 43.1646 33.9159 42.8553 30.6114C42.546 27.3069 40.9888 24.2446 38.5008 22.0479C36.0129 19.8513 32.7812 18.6855 29.4638 18.7879C26.1465 18.8904 22.9929 20.2534 20.6453 22.5994C18.2976 24.9454 16.9324 28.098 16.8276 31.4153C16.7228 34.7325 17.8863 37.965 20.0812 40.4546C22.2761 42.9441 25.3373 44.5034 28.6416 44.8151C31.9458 45.1267 35.2447 44.1672 37.8663 42.132L45.4859 49.75L47.7837 47.4523ZM29.9087 41.625C27.9803 41.625 26.0953 41.0532 24.4919 39.9818C22.8885 38.9105 21.6388 37.3877 20.9009 35.6062C20.1629 33.8246 19.9698 31.8642 20.346 29.9729C20.7222 28.0816 21.6508 26.3443 23.0144 24.9807C24.378 23.6171 26.1152 22.6886 28.0066 22.3123C29.8979 21.9361 31.8583 22.1292 33.6399 22.8672C35.4214 23.6051 36.9442 24.8548 38.0155 26.4582C39.0869 28.0616 39.6587 29.9466 39.6587 31.875C39.6557 34.4599 38.6275 36.9381 36.7997 38.766C34.9718 40.5938 32.4936 41.622 29.9087 41.625ZM2.28369 20.5H15.2837V23.75H2.28369V20.5ZM2.28369 4.25H28.2837V7.5H2.28369V4.25ZM2.28369 12.375H28.2837V15.625H2.28369V12.375Z" fill="black"/>
</svg>
