<svg width="53" height="52" viewBox="0 0 53 52" fill="none" xmlns="http://www.w3.org/2000/svg">
<path d="M9.78369 34.125V32.5H6.53369V34.125C6.53369 37.1418 7.73213 40.0351 9.86535 42.1683C11.9986 44.3016 14.8919 45.5 17.9087 45.5H22.7837V42.25H17.9087C15.7538 42.25 13.6872 41.394 12.1634 39.8702C10.6397 38.3465 9.78369 36.2799 9.78369 34.125ZM39.0337 17.875V19.5H42.2837V17.875C42.2837 14.8582 41.0853 11.9649 38.952 9.83166C36.8188 7.69844 33.9255 6.5 30.9087 6.5H26.0337V9.75H30.9087C31.9757 9.75 33.0322 9.96016 34.018 10.3685C35.0038 10.7768 35.8995 11.3753 36.6539 12.1298C37.4084 12.8842 38.0069 13.7799 38.4152 14.7657C38.8235 15.7515 39.0337 16.808 39.0337 17.875ZM17.9087 17.875H8.15869C6.86576 17.875 5.62579 18.3886 4.71155 19.3029C3.79731 20.2171 3.28369 21.4571 3.28369 22.75V26H6.53369V22.75C6.53369 22.319 6.7049 21.9057 7.00964 21.601C7.31439 21.2962 7.72771 21.125 8.15869 21.125H17.9087C18.3397 21.125 18.753 21.2962 19.0577 21.601C19.3625 21.9057 19.5337 22.319 19.5337 22.75V26H22.7837V22.75C22.7837 21.4571 22.2701 20.2171 21.3558 19.3029C20.4416 18.3886 19.2016 17.875 17.9087 17.875ZM13.0337 16.25C14.3193 16.25 15.576 15.8688 16.6449 15.1546C17.7138 14.4403 18.5469 13.4252 19.0389 12.2374C19.5309 11.0497 19.6596 9.74279 19.4088 8.48192C19.158 7.22104 18.5389 6.06285 17.6299 5.15381C16.7208 4.24477 15.5627 3.6257 14.3018 3.3749C13.0409 3.12409 11.734 3.25282 10.5462 3.74479C9.35853 4.23676 8.34337 5.06988 7.62914 6.1388C6.91491 7.20772 6.53369 8.46442 6.53369 9.75C6.53369 11.4739 7.21851 13.1272 8.4375 14.3462C9.65648 15.5652 11.3098 16.25 13.0337 16.25ZM13.0337 6.5C13.6765 6.5 14.3048 6.69061 14.8393 7.04773C15.3738 7.40484 15.7903 7.91242 16.0363 8.50628C16.2823 9.10014 16.3466 9.75361 16.2212 10.384C16.0958 11.0145 15.7863 11.5936 15.3318 12.0481C14.8773 12.5026 14.2982 12.8122 13.6677 12.9376C13.0373 13.063 12.3838 12.9986 11.79 12.7526C11.1961 12.5066 10.6885 12.0901 10.3314 11.5556C9.9743 11.0211 9.78369 10.3928 9.78369 9.75C9.78369 8.88805 10.1261 8.0614 10.7356 7.45191C11.3451 6.84241 12.1717 6.5 13.0337 6.5ZM43.9087 40.625H34.1587C32.8658 40.625 31.6258 41.1386 30.7115 42.0529C29.7973 42.9671 29.2837 44.2071 29.2837 45.5V48.75H32.5337V45.5C32.5337 45.069 32.7049 44.6557 33.0096 44.351C33.3144 44.0462 33.7277 43.875 34.1587 43.875H43.9087C44.3397 43.875 44.753 44.0462 45.0577 44.351C45.3625 44.6557 45.5337 45.069 45.5337 45.5V48.75H48.7837V45.5C48.7837 44.2071 48.2701 42.9671 47.3558 42.0529C46.4416 41.1386 45.2016 40.625 43.9087 40.625ZM32.5337 32.5C32.5337 33.7856 32.9149 35.0423 33.6291 36.1112C34.3434 37.1801 35.3585 38.0133 36.5462 38.5052C37.734 38.9972 39.0409 39.1259 40.3018 38.8751C41.5627 38.6243 42.7208 38.0052 43.6299 37.0962C44.5389 36.1872 45.158 35.029 45.4088 33.7681C45.6596 32.5072 45.5309 31.2003 45.0389 30.0126C44.5469 28.8248 43.7138 27.8097 42.6449 27.0955C41.576 26.3812 40.3193 26 39.0337 26C37.3098 26 35.6565 26.6848 34.4375 27.9038C33.2185 29.1228 32.5337 30.7761 32.5337 32.5ZM42.2837 32.5C42.2837 33.1428 42.0931 33.7711 41.736 34.3056C41.3789 34.8401 40.8713 35.2566 40.2774 35.5026C39.6836 35.7486 39.0301 35.813 38.3996 35.6876C37.7692 35.5622 37.1901 35.2526 36.7356 34.7981C36.2811 34.3436 35.9715 33.7645 35.8461 33.134C35.7207 32.5036 35.7851 31.8501 36.0311 31.2563C36.2771 30.6624 36.6936 30.1548 37.2281 29.7977C37.7625 29.4406 38.3909 29.25 39.0337 29.25C39.8956 29.25 40.7223 29.5924 41.3318 30.2019C41.9413 30.8114 42.2837 31.6381 42.2837 32.5Z" fill="black"/>
</svg>
