<?xml version="1.0" encoding="UTF-8"?>
<!DOCTYPE svg PUBLIC "-//W3C//DTD SVG 1.1//EN" "http://www.w3.org/Graphics/SVG/1.1/DTD/svg11.dtd">
<svg xmlns="http://www.w3.org/2000/svg" version="1.1" width="312px" height="337px" style="shape-rendering:geometricPrecision; text-rendering:geometricPrecision; image-rendering:optimizeQuality; fill-rule:evenodd; clip-rule:evenodd" xmlns:xlink="http://www.w3.org/1999/xlink">
<g><path style="opacity:0.015" fill="#fafbfe" d="M 35.5,15.5 C 30.8333,15.5 26.1667,15.5 21.5,15.5C 20.5007,96.3316 20.1674,177.332 20.5,258.5C 20.5,258.833 20.5,259.167 20.5,259.5C 19.7611,259.631 19.0944,259.464 18.5,259C 19.7613,178.227 19.7613,97.0599 18.5,15.5C 24.3204,14.1843 29.9871,14.1843 35.5,15.5 Z"/></g>
<g><path style="opacity:1" fill="#001751" d="M 47.5,226.5 C 47.3893,227.117 47.056,227.617 46.5,228C 54.0316,228.373 61.365,228.873 68.5,229.5C 69.8485,231.611 69.5152,233.445 67.5,235C 68.2567,236.512 69.2567,237.846 70.5,239C 69.5268,244.407 69.1934,249.907 69.5,255.5C 70.8221,255.67 71.9887,255.337 73,254.5C 73.3333,248.5 73.6667,242.5 74,236.5C 75.9658,244.141 75.9658,251.808 74,259.5C 71.9179,262.15 70.2512,261.816 69,258.5C 67.6439,259.38 66.1439,259.714 64.5,259.5C 64.7852,261.288 64.4519,262.955 63.5,264.5C 61.0395,266.053 60.3728,268.053 61.5,270.5C 60.7043,283.141 60.2043,295.807 60,308.5C 59.3333,307.833 58.6667,307.167 58,306.5C 57.8117,300.252 57.3117,294.085 56.5,288C 57.6497,279.245 57.8163,270.412 57,261.5C 56.7216,260.584 56.2216,259.918 55.5,259.5C 55.5,258.833 55.1667,258.5 54.5,258.5C 43.976,257.159 33.3093,256.826 22.5,257.5C 22.5,177.167 22.5,96.8333 22.5,16.5C 30.5,16.5 38.5,16.5 46.5,16.5C 46.1675,86.6687 46.5008,156.669 47.5,226.5 Z"/></g>
<g><path style="opacity:1" fill="#454b73" d="M 154.5,18.5 C 154.209,17.3509 153.376,16.6842 152,16.5C 143.239,16.6815 134.406,16.6815 125.5,16.5C 125.034,18.2012 125.034,19.7012 125.5,21C 123.846,21.6077 122.179,22.1077 120.5,22.5C 121.172,19.6575 122.506,17.1575 124.5,15C 135.161,14.5002 145.828,14.3335 156.5,14.5C 156.771,16.3797 156.104,17.713 154.5,18.5 Z"/></g>
<g><path style="opacity:0.998" fill="#031637" d="M 21.5,15.5 C 21.1674,96.3351 21.5007,177.002 22.5,257.5C 33.3093,256.826 43.976,257.159 54.5,258.5C 43.1667,258.5 31.8333,258.5 20.5,258.5C 20.1674,177.332 20.5007,96.3316 21.5,15.5 Z"/></g>
<g><path style="opacity:1" fill="#0c1e4f" d="M 120.5,22.5 C 119.559,27.1339 120.893,28.3006 124.5,26C 125.191,24.9326 125.691,23.7659 126,22.5C 128.065,23.6278 128.732,25.2945 128,27.5C 123.943,29.1426 123.777,30.4759 127.5,31.5C 127.5,33.5 127.5,35.5 127.5,37.5C 126.167,37.5 124.833,37.5 123.5,37.5C 123.334,34.8316 122.334,32.4983 120.5,30.5C 119.311,29.5713 117.978,29.238 116.5,29.5C 118.159,35.8263 115.826,38.8263 109.5,38.5C 112.676,32.8106 116.342,27.4773 120.5,22.5 Z"/></g>
<g><path style="opacity:0.954" fill="#2c365f" d="M 48.5,226.5 C 48.1667,226.5 47.8333,226.5 47.5,226.5C 46.5008,156.669 46.1675,86.6687 46.5,16.5C 38.5,16.5 30.5,16.5 22.5,16.5C 22.5,96.8333 22.5,177.167 22.5,257.5C 21.5007,177.002 21.1674,96.3351 21.5,15.5C 26.1667,15.5 30.8333,15.5 35.5,15.5C 39.7307,15.0577 44.0641,15.0577 48.5,15.5C 48.5,85.8333 48.5,156.167 48.5,226.5 Z"/></g>
<g><path style="opacity:1" fill="#182655" d="M 154.5,18.5 C 148.265,30.6394 141.265,42.306 133.5,53.5C 133.67,52.1779 133.337,51.0113 132.5,50C 136.701,47.3282 136.367,46.1615 131.5,46.5C 131.5,41.5 131.5,36.5 131.5,31.5C 135.789,31.7442 136.456,33.4109 133.5,36.5C 134.902,37.8425 134.569,38.6758 132.5,39C 133.227,40.3988 133.727,41.8988 134,43.5C 135.016,42.3659 135.683,42.6992 136,44.5C 136.906,39.8738 138.573,35.5404 141,31.5C 142.299,31.9662 143.799,31.9662 145.5,31.5C 146.188,28.4972 147.521,25.8305 149.5,23.5C 149.43,22.2284 149.097,21.0617 148.5,20C 150.425,19.1159 152.425,18.6159 154.5,18.5 Z"/></g>
<g><path style="opacity:0.776" fill="#7786a0" d="M 101.5,50.5 C 101.262,52.4044 100.262,53.7377 98.5,54.5C 98.7376,52.5956 99.7376,51.2623 101.5,50.5 Z"/></g>
<g><path style="opacity:0.765" fill="#424e6d" d="M 133.5,53.5 C 132.617,56.7043 130.95,59.3709 128.5,61.5C 128.564,57.7806 130.231,55.1139 133.5,53.5 Z"/></g>
<g><path style="opacity:1" fill="#354067" d="M 95.5,59.5 C 94.1854,62.3221 93.1854,65.3221 92.5,68.5C 89.3517,69.7209 87.5184,72.0542 87,75.5C 86.1841,76.8228 85.0174,77.4894 83.5,77.5C 87.0068,71.1477 91.0068,65.1477 95.5,59.5 Z"/></g>
<g><path style="opacity:0.035" fill="#cad0e4" d="M 125.5,67.5 C 125.573,69.0269 124.906,70.0269 123.5,70.5C 123.427,68.9731 124.094,67.9731 125.5,67.5 Z"/></g>
<g><path style="opacity:1" fill="#001750" d="M 154.5,18.5 C 152.425,18.6159 150.425,19.1159 148.5,20C 149.097,21.0617 149.43,22.2284 149.5,23.5C 147.521,25.8305 146.188,28.4972 145.5,31.5C 143.799,31.9662 142.299,31.9662 141,31.5C 138.573,35.5404 136.906,39.8738 136,44.5C 135.683,42.6992 135.016,42.3659 134,43.5C 133.727,41.8988 133.227,40.3988 132.5,39C 134.569,38.6758 134.902,37.8425 133.5,36.5C 136.456,33.4109 135.789,31.7442 131.5,31.5C 131.5,36.5 131.5,41.5 131.5,46.5C 136.367,46.1615 136.701,47.3282 132.5,50C 133.337,51.0113 133.67,52.1779 133.5,53.5C 130.231,55.1139 128.564,57.7806 128.5,61.5C 128.5,61.8333 128.5,62.1667 128.5,62.5C 125.751,63.974 123.418,65.974 121.5,68.5C 117.481,75.2138 113.481,81.8805 109.5,88.5C 108.05,87.1502 107.383,85.4835 107.5,83.5C 104.833,83.5 102.167,83.5 99.5,83.5C 99.3379,85.5273 99.5045,87.5273 100,89.5C 103.032,91.3882 105.865,93.3882 108.5,95.5C 109.209,96.404 110.209,96.7373 111.5,96.5C 111.5,98.1667 111.5,99.8333 111.5,101.5C 170.715,102.157 229.715,101.49 288.5,99.5C 288.829,151.875 288.495,204.209 287.5,256.5C 232.668,257.167 178.002,257.833 123.5,258.5C 121.5,258.5 119.5,258.5 117.5,258.5C 117.5,259.833 117.5,261.167 117.5,262.5C 116.833,263.167 116.167,263.833 115.5,264.5C 114.127,264.343 112.793,264.51 111.5,265C 110.624,266.585 109.291,267.585 107.5,268C 107.833,268.333 108.167,268.667 108.5,269C 106.713,270.582 104.713,271.749 102.5,272.5C 101.06,273.363 99.7264,273.363 98.5,272.5C 98.3217,275.276 96.8217,277.609 94,279.5C 92.7202,279.387 91.8869,278.72 91.5,277.5C 92.0766,275.45 93.4099,274.45 95.5,274.5C 94.5202,271.69 93.1869,269.024 91.5,266.5C 90.675,265.614 89.675,265.281 88.5,265.5C 88.5,263.5 88.5,261.5 88.5,259.5C 90.451,259.773 91.951,259.107 93,257.5C 93.4186,258.672 94.0853,259.672 95,260.5C 95.4935,258.866 95.6602,257.199 95.5,255.5C 97.5841,254.752 99.5841,254.752 101.5,255.5C 102.663,253.45 102.496,251.45 101,249.5C 100.163,251.007 98.9961,251.507 97.5,251C 99.0749,247.452 101.408,243.952 104.5,240.5C 107.772,241.563 110.939,241.229 114,239.5C 117.667,239.833 121.333,240.167 125,240.5C 141.799,239.862 158.632,238.862 175.5,237.5C 175.709,236.914 176.043,236.414 176.5,236C 173.667,235.833 170.833,235.667 168,235.5C 147.889,236.757 127.723,238.09 107.5,239.5C 107.297,237.61 107.963,236.11 109.5,235C 115.491,234.501 121.491,234.334 127.5,234.5C 127.5,233.5 127.5,232.5 127.5,231.5C 122.056,232.108 117.056,231.442 112.5,229.5C 127.17,229.333 141.837,229.5 156.5,230C 158.329,230.273 159.829,231.107 161,232.5C 165,232.5 169,232.5 173,232.5C 174.583,230.945 176.416,229.778 178.5,229C 183.533,228.272 188.533,228.439 193.5,229.5C 197.331,228.973 200.998,228.306 204.5,227.5C 222.456,228.64 240.456,228.807 258.5,228C 259.328,227.085 260.328,226.419 261.5,226C 260.667,225.167 259.833,224.333 259,223.5C 258.832,192.664 258.332,161.997 257.5,131.5C 257.5,131.167 257.5,130.833 257.5,130.5C 257.719,129.325 257.386,128.325 256.5,127.5C 209.147,129.157 161.813,130.157 114.5,130.5C 112.712,130.215 111.045,130.548 109.5,131.5C 109.624,132.107 109.957,132.44 110.5,132.5C 113.116,138.347 115.782,144.181 118.5,150C 118.167,150.333 117.833,150.667 117.5,151C 120.579,152.411 123.579,153.911 126.5,155.5C 127.974,156.436 128.974,157.77 129.5,159.5C 129.457,162.587 129.29,165.587 129,168.5C 131.376,165.572 132.876,165.906 133.5,169.5C 132.067,171.336 131.567,173.336 132,175.5C 133.133,173.789 134.633,173.289 136.5,174C 136.933,176.172 137.266,178.339 137.5,180.5C 139.949,182.661 142.615,183.328 145.5,182.5C 144.789,185.864 145.956,188.197 149,189.5C 149.617,190.449 149.451,191.282 148.5,192C 152.831,194.583 154.998,198.416 155,203.5C 156.915,202.084 158.415,202.418 159.5,204.5C 159.421,205.93 159.754,207.264 160.5,208.5C 148.848,209.666 137.181,209.833 125.5,209C 123.281,207.111 122.447,204.944 123,202.5C 121.491,201.91 119.991,201.244 118.5,200.5C 118.037,197.649 116.704,196.649 114.5,197.5C 107.785,188.782 101.452,179.782 95.5,170.5C 93.4608,166.149 91.7941,161.149 90.5,155.5C 88.8008,155.66 87.1341,155.494 85.5,155C 85.8333,154.667 86.1667,154.333 86.5,154C 84.9354,152.588 83.2687,151.421 81.5,150.5C 78.6867,146.902 75.8533,143.235 73,139.5C 72.5026,136.854 72.3359,134.187 72.5,131.5C 74.212,118.969 75.0453,106.302 75,93.5C 75.5885,91.1367 77.0885,90.1367 79.5,90.5C 79.5,92.1667 79.5,93.8333 79.5,95.5C 81.5,95.5 83.5,95.5 85.5,95.5C 85.5,94.1667 85.5,92.8333 85.5,91.5C 83.0418,91.7725 81.3751,90.7725 80.5,88.5C 81.325,87.6143 82.325,87.281 83.5,87.5C 83.8808,85.0582 83.2141,84.3915 81.5,85.5C 81.1667,85 80.8333,84.5 80.5,84C 81.4725,83.6509 82.3058,82.8176 83,81.5C 83.49,80.2068 83.6567,78.8734 83.5,77.5C 85.0174,77.4894 86.1841,76.8228 87,75.5C 87.5184,72.0542 89.3517,69.7209 92.5,68.5C 93.1854,65.3221 94.1854,62.3221 95.5,59.5C 95.7497,57.326 96.7497,55.6594 98.5,54.5C 100.262,53.7377 101.262,52.4044 101.5,50.5C 103.673,46.1477 106.34,42.1477 109.5,38.5C 115.826,38.8263 118.159,35.8263 116.5,29.5C 117.978,29.238 119.311,29.5713 120.5,30.5C 122.334,32.4983 123.334,34.8316 123.5,37.5C 124.833,37.5 126.167,37.5 127.5,37.5C 127.5,35.5 127.5,33.5 127.5,31.5C 123.777,30.4759 123.943,29.1426 128,27.5C 128.732,25.2945 128.065,23.6278 126,22.5C 125.691,23.7659 125.191,24.9326 124.5,26C 120.893,28.3006 119.559,27.1339 120.5,22.5C 122.179,22.1077 123.846,21.6077 125.5,21C 125.034,19.7012 125.034,18.2012 125.5,16.5C 134.406,16.6815 143.239,16.6815 152,16.5C 153.376,16.6842 154.209,17.3509 154.5,18.5 Z"/></g>
<g><path style="opacity:1" fill="#182553" d="M 128.5,62.5 C 127.925,64.4113 126.925,66.078 125.5,67.5C 124.094,67.9731 123.427,68.9731 123.5,70.5C 119.084,78.3333 114.418,85.9999 109.5,93.5C 108.662,93.8417 108.328,94.5084 108.5,95.5C 105.865,93.3882 103.032,91.3882 100,89.5C 99.5045,87.5273 99.3379,85.5273 99.5,83.5C 102.167,83.5 104.833,83.5 107.5,83.5C 107.383,85.4835 108.05,87.1502 109.5,88.5C 113.481,81.8805 117.481,75.2138 121.5,68.5C 123.418,65.974 125.751,63.974 128.5,62.5 Z"/></g>
<g><path style="opacity:1" fill="#373c66" d="M 83.5,77.5 C 83.6567,78.8734 83.49,80.2068 83,81.5C 82.3058,82.8176 81.4725,83.6509 80.5,84C 80.8333,84.5 81.1667,85 81.5,85.5C 83.2141,84.3915 83.8808,85.0582 83.5,87.5C 82.325,87.281 81.325,87.6143 80.5,88.5C 81.3751,90.7725 83.0418,91.7725 85.5,91.5C 85.5,92.8333 85.5,94.1667 85.5,95.5C 83.5,95.5 81.5,95.5 79.5,95.5C 79.5,93.8333 79.5,92.1667 79.5,90.5C 77.0885,90.1367 75.5885,91.1367 75,93.5C 75.0453,106.302 74.212,118.969 72.5,131.5C 71.3403,119.674 71.1737,107.674 72,95.5C 72.3333,94.1667 72.6667,92.8333 73,91.5C 76.2774,86.5863 79.7774,81.9197 83.5,77.5 Z"/></g>
<g><path style="opacity:0.578" fill="#4e6182" d="M 109.5,93.5 C 169.491,95.4962 229.824,96.1629 290.5,95.5C 290.5,149.833 290.5,204.167 290.5,258.5C 290.167,258.5 289.833,258.5 289.5,258.5C 289.832,204.331 289.499,150.331 288.5,96.5C 229.5,96.5 170.5,96.5 111.5,96.5C 110.209,96.7373 109.209,96.404 108.5,95.5C 108.328,94.5084 108.662,93.8417 109.5,93.5 Z"/></g>
<g><path style="opacity:1" fill="#00164b" d="M 111.5,96.5 C 170.5,96.5 229.5,96.5 288.5,96.5C 288.5,97.5 288.5,98.5 288.5,99.5C 229.715,101.49 170.715,102.157 111.5,101.5C 111.5,99.8333 111.5,98.1667 111.5,96.5 Z"/></g>
<g><path style="opacity:0.941" fill="#02193f" d="M 257.5,130.5 C 209.833,130.5 162.167,130.5 114.5,130.5C 161.813,130.157 209.147,129.157 256.5,127.5C 257.386,128.325 257.719,129.325 257.5,130.5 Z"/></g>
<g><path style="opacity:0.267" fill="#b0bed7" d="M 114.5,130.5 C 162.167,130.5 209.833,130.5 257.5,130.5C 257.5,130.833 257.5,131.167 257.5,131.5C 257.832,163.004 257.498,194.338 256.5,225.5C 256.5,194.167 256.5,162.833 256.5,131.5C 207.664,131.168 158.997,131.501 110.5,132.5C 109.957,132.44 109.624,132.107 109.5,131.5C 111.045,130.548 112.712,130.215 114.5,130.5 Z"/></g>
<g><path style="opacity:0.553" fill="#828a9c" d="M 115.5,139.5 C 116.906,139.973 117.573,140.973 117.5,142.5C 116.094,142.027 115.427,141.027 115.5,139.5 Z"/></g>
<g><path style="opacity:1" fill="#19254f" d="M 110.5,132.5 C 112.9,134.296 114.567,136.63 115.5,139.5C 115.427,141.027 116.094,142.027 117.5,142.5C 120.883,146.553 123.883,150.886 126.5,155.5C 123.579,153.911 120.579,152.411 117.5,151C 117.833,150.667 118.167,150.333 118.5,150C 115.782,144.181 113.116,138.347 110.5,132.5 Z"/></g>
<g><path style="opacity:1" fill="#2b385b" d="M 81.5,150.5 C 83.2687,151.421 84.9354,152.588 86.5,154C 86.1667,154.333 85.8333,154.667 85.5,155C 87.1341,155.494 88.8008,155.66 90.5,155.5C 91.7941,161.149 93.4608,166.149 95.5,170.5C 90.4765,164.133 85.8099,157.466 81.5,150.5 Z"/></g>
<g><path style="opacity:1" fill="#172453" d="M 129.5,159.5 C 135.56,166.606 140.893,174.272 145.5,182.5C 142.615,183.328 139.949,182.661 137.5,180.5C 137.266,178.339 136.933,176.172 136.5,174C 134.633,173.289 133.133,173.789 132,175.5C 131.567,173.336 132.067,171.336 133.5,169.5C 132.876,165.906 131.376,165.572 129,168.5C 129.29,165.587 129.457,162.587 129.5,159.5 Z"/></g>
<g><path style="opacity:1" fill="#28355b" d="M 145.5,182.5 C 151.077,189.984 156.41,197.65 161.5,205.5C 160.833,205.167 160.167,204.833 159.5,204.5C 158.415,202.418 156.915,202.084 155,203.5C 154.998,198.416 152.831,194.583 148.5,192C 149.451,191.282 149.617,190.449 149,189.5C 145.956,188.197 144.789,185.864 145.5,182.5 Z"/></g>
<g><path style="opacity:0.525" fill="#8491a6" d="M 161.5,205.5 C 162.906,205.973 163.573,206.973 163.5,208.5C 162.094,208.027 161.427,207.027 161.5,205.5 Z"/></g>
<g><path style="opacity:1" fill="#0e1e49" d="M 159.5,204.5 C 160.167,204.833 160.833,205.167 161.5,205.5C 161.427,207.027 162.094,208.027 163.5,208.5C 150.542,210.481 137.209,211.148 123.5,210.5C 120.117,206.447 117.117,202.114 114.5,197.5C 116.704,196.649 118.037,197.649 118.5,200.5C 119.991,201.244 121.491,201.91 123,202.5C 122.447,204.944 123.281,207.111 125.5,209C 137.181,209.833 148.848,209.666 160.5,208.5C 159.754,207.264 159.421,205.93 159.5,204.5 Z"/></g>
<g><path style="opacity:0.592" fill="#5b6a88" d="M 163.5,208.5 C 164.478,208.811 165.145,209.478 165.5,210.5C 151.339,211.826 137.339,211.826 123.5,210.5C 137.209,211.148 150.542,210.481 163.5,208.5 Z"/></g>
<g><path style="opacity:1" fill="#273258" d="M 257.5,131.5 C 258.332,161.997 258.832,192.664 259,223.5C 259.833,224.333 260.667,225.167 261.5,226C 260.328,226.419 259.328,227.085 258.5,228C 240.456,228.807 222.456,228.64 204.5,227.5C 193.833,227.5 183.167,227.5 172.5,227.5C 200.334,226.626 228.334,225.96 256.5,225.5C 257.498,194.338 257.832,163.004 257.5,131.5 Z"/></g>
<g><path style="opacity:0.584" fill="#8f99b0" d="M 112.5,228.5 C 112.5,228.833 112.5,229.167 112.5,229.5C 111.5,230.167 110.5,230.833 109.5,231.5C 109.5,229.5 110.5,228.5 112.5,228.5 Z"/></g>
<g><path style="opacity:1" fill="#162652" d="M 172.5,227.5 C 183.167,227.5 193.833,227.5 204.5,227.5C 200.998,228.306 197.331,228.973 193.5,229.5C 188.533,228.439 183.533,228.272 178.5,229C 176.416,229.778 174.583,230.945 173,232.5C 169,232.5 165,232.5 161,232.5C 159.829,231.107 158.329,230.273 156.5,230C 141.837,229.5 127.17,229.333 112.5,229.5C 112.5,229.167 112.5,228.833 112.5,228.5C 132.326,227.503 152.326,227.17 172.5,227.5 Z"/></g>
<g><path style="opacity:0.509" fill="#7f8da8" d="M 57.5,226.5 C 63.979,225.509 70.6457,225.176 77.5,225.5C 77.1707,240.343 77.504,255.01 78.5,269.5C 78.2172,270.289 77.7172,270.956 77,271.5C 76.5001,256.504 76.3334,241.504 76.5,226.5C 70.1667,226.5 63.8333,226.5 57.5,226.5 Z"/></g>
<g><path style="opacity:1" fill="#001744" d="M 288.5,96.5 C 289.499,150.331 289.832,204.331 289.5,258.5C 234.167,258.5 178.833,258.5 123.5,258.5C 178.002,257.833 232.668,257.167 287.5,256.5C 288.495,204.209 288.829,151.875 288.5,99.5C 288.5,98.5 288.5,97.5 288.5,96.5 Z"/></g>
<g><path style="opacity:0.504" fill="#74839e" d="M 20.5,259.5 C 20.5,259.167 20.5,258.833 20.5,258.5C 31.8333,258.5 43.1667,258.5 54.5,258.5C 55.1667,258.5 55.5,258.833 55.5,259.5C 55.5,274.833 55.5,290.167 55.5,305.5C 55.5,306.833 55.5,308.167 55.5,309.5C 54.5035,293.008 54.1702,276.342 54.5,259.5C 43.0687,260.362 31.7353,260.362 20.5,259.5 Z"/></g>
<g><path style="opacity:0.506" fill="#647392" d="M 123.5,258.5 C 178.833,258.5 234.167,258.5 289.5,258.5C 289.833,258.5 290.167,258.5 290.5,258.5C 234.001,259.333 177.335,259.833 120.5,260C 119.627,261.045 118.627,261.878 117.5,262.5C 117.5,261.167 117.5,259.833 117.5,258.5C 119.5,258.5 121.5,258.5 123.5,258.5 Z"/></g>
<g><path style="opacity:1" fill="#01184e" d="M 47.5,226.5 C 47.8333,226.5 48.1667,226.5 48.5,226.5C 51.5,226.5 54.5,226.5 57.5,226.5C 63.8333,226.5 70.1667,226.5 76.5,226.5C 76.3334,241.504 76.5001,256.504 77,271.5C 77.7172,270.956 78.2172,270.289 78.5,269.5C 81.1285,265.537 84.1285,261.871 87.5,258.5C 88.9063,258.027 89.573,257.027 89.5,255.5C 91.5869,254.415 92.9202,252.749 93.5,250.5C 98.1112,243.556 103.445,237.222 109.5,231.5C 110.5,230.833 111.5,230.167 112.5,229.5C 117.056,231.442 122.056,232.108 127.5,231.5C 127.5,232.5 127.5,233.5 127.5,234.5C 121.491,234.334 115.491,234.501 109.5,235C 107.963,236.11 107.297,237.61 107.5,239.5C 127.723,238.09 147.889,236.757 168,235.5C 170.833,235.667 173.667,235.833 176.5,236C 176.043,236.414 175.709,236.914 175.5,237.5C 158.632,238.862 141.799,239.862 125,240.5C 121.333,240.167 117.667,239.833 114,239.5C 110.939,241.229 107.772,241.563 104.5,240.5C 101.408,243.952 99.0749,247.452 97.5,251C 98.9961,251.507 100.163,251.007 101,249.5C 102.496,251.45 102.663,253.45 101.5,255.5C 99.5841,254.752 97.5841,254.752 95.5,255.5C 95.6602,257.199 95.4935,258.866 95,260.5C 94.0853,259.672 93.4186,258.672 93,257.5C 91.951,259.107 90.451,259.773 88.5,259.5C 88.5,261.5 88.5,263.5 88.5,265.5C 89.675,265.281 90.675,265.614 91.5,266.5C 93.1869,269.024 94.5202,271.69 95.5,274.5C 93.4099,274.45 92.0766,275.45 91.5,277.5C 91.8869,278.72 92.7202,279.387 94,279.5C 96.8217,277.609 98.3217,275.276 98.5,272.5C 99.7264,273.363 101.06,273.363 102.5,272.5C 102.39,274.098 102.057,275.765 101.5,277.5C 100.033,274.742 99.3668,275.075 99.5,278.5C 98.5,278.5 97.5,278.5 96.5,278.5C 96.5,279.5 96.5,280.5 96.5,281.5C 91.479,281.176 89.479,283.176 90.5,287.5C 89.448,287.351 88.448,287.517 87.5,288C 85.5762,291.091 82.9096,293.258 79.5,294.5C 76.957,299.218 73.2903,302.885 68.5,305.5C 69.6293,307.529 69.1293,307.863 67,306.5C 64.7866,308.581 62.1199,309.915 59,310.5C 57.3771,309.079 56.2105,307.412 55.5,305.5C 55.5,290.167 55.5,274.833 55.5,259.5C 56.2216,259.918 56.7216,260.584 57,261.5C 57.8163,270.412 57.6497,279.245 56.5,288C 57.3117,294.085 57.8117,300.252 58,306.5C 58.6667,307.167 59.3333,307.833 60,308.5C 60.2043,295.807 60.7043,283.141 61.5,270.5C 60.3728,268.053 61.0395,266.053 63.5,264.5C 64.4519,262.955 64.7852,261.288 64.5,259.5C 66.1439,259.714 67.6439,259.38 69,258.5C 70.2512,261.816 71.9179,262.15 74,259.5C 75.9658,251.808 75.9658,244.141 74,236.5C 73.6667,242.5 73.3333,248.5 73,254.5C 71.9887,255.337 70.8221,255.67 69.5,255.5C 69.1934,249.907 69.5268,244.407 70.5,239C 69.2567,237.846 68.2567,236.512 67.5,235C 69.5152,233.445 69.8485,231.611 68.5,229.5C 61.365,228.873 54.0316,228.373 46.5,228C 47.056,227.617 47.3893,227.117 47.5,226.5 Z"/></g>
<g><path style="opacity:0.71" fill="#9499b6" d="M 89.5,255.5 C 89.573,257.027 88.9063,258.027 87.5,258.5C 87.427,256.973 88.0937,255.973 89.5,255.5 Z"/></g>
<g><path style="opacity:0.718" fill="#76819b" d="M 93.5,250.5 C 92.9202,252.749 91.5869,254.415 89.5,255.5C 90.0798,253.251 91.4131,251.585 93.5,250.5 Z"/></g>
<g><path style="opacity:0.914" fill="#374164" d="M 115.5,264.5 C 111.14,269.194 106.473,273.528 101.5,277.5C 102.057,275.765 102.39,274.098 102.5,272.5C 104.713,271.749 106.713,270.582 108.5,269C 108.167,268.667 107.833,268.333 107.5,268C 109.291,267.585 110.624,266.585 111.5,265C 112.793,264.51 114.127,264.343 115.5,264.5 Z"/></g>
<g><path style="opacity:1" fill="#2f395e" d="M 101.5,277.5 C 90.7284,287.771 80.0617,298.271 69.5,309C 65.8333,311.167 62.1667,313.333 58.5,315.5C 56.9617,313.757 55.9617,311.757 55.5,309.5C 55.5,308.167 55.5,306.833 55.5,305.5C 56.2105,307.412 57.3771,309.079 59,310.5C 62.1199,309.915 64.7866,308.581 67,306.5C 69.1293,307.863 69.6293,307.529 68.5,305.5C 73.2903,302.885 76.957,299.218 79.5,294.5C 82.9096,293.258 85.5762,291.091 87.5,288C 88.448,287.517 89.448,287.351 90.5,287.5C 89.479,283.176 91.479,281.176 96.5,281.5C 96.5,280.5 96.5,279.5 96.5,278.5C 97.5,278.5 98.5,278.5 99.5,278.5C 99.3668,275.075 100.033,274.742 101.5,277.5 Z"/></g>
</svg>
