<svg width="53" height="52" viewBox="0 0 53 52" fill="none" xmlns="http://www.w3.org/2000/svg">
<path d="M46.4233 3.25H30.1733C28.3858 3.25 26.9233 4.7125 26.9233 6.5V16.25C26.9233 18.0375 28.3858 19.5 30.1733 19.5H34.0733L36.8358 24.375L39.5983 22.75L35.8608 16.25H30.1733V6.5H46.4233V16.25H41.5483V19.5H46.4233C48.2108 19.5 49.6733 18.0375 49.6733 16.25V6.5C49.6733 4.7125 48.2108 3.25 46.4233 3.25ZM24.8108 50.375L22.0483 48.75L27.7358 39H36.6733C38.4608 39 39.9233 37.5375 39.9233 35.75V27.625H43.1733V35.75C43.1733 39.325 40.2483 42.25 36.6733 42.25H29.5233L24.8108 50.375Z" fill="black"/>
<path d="M17.1733 29.25C18.0708 29.25 18.7983 28.5225 18.7983 27.625C18.7983 26.7275 18.0708 26 17.1733 26C16.2759 26 15.5483 26.7275 15.5483 27.625C15.5483 28.5225 16.2759 29.25 17.1733 29.25Z" fill="black"/>
<path d="M23.6733 29.25C24.5708 29.25 25.2983 28.5225 25.2983 27.625C25.2983 26.7275 24.5708 26 23.6733 26C22.7759 26 22.0483 26.7275 22.0483 27.625C22.0483 28.5225 22.7759 29.25 23.6733 29.25Z" fill="black"/>
<path d="M30.1733 29.25C31.0708 29.25 31.7983 28.5225 31.7983 27.625C31.7983 26.7275 31.0708 26 30.1733 26C29.2759 26 28.5483 26.7275 28.5483 27.625C28.5483 28.5225 29.2759 29.25 30.1733 29.25Z" fill="black"/>
<path d="M20.4233 42.25H10.6733C7.09834 42.25 4.17334 39.325 4.17334 35.75V19.5C4.17334 15.925 7.09834 13 10.6733 13H23.6733V16.25H10.6733C8.88584 16.25 7.42334 17.7125 7.42334 19.5V35.75C7.42334 37.5375 8.88584 39 10.6733 39H20.4233V42.25Z" fill="black"/>
</svg>
