<svg width="49" height="46" viewBox="0 0 49 46" fill="none" xmlns="http://www.w3.org/2000/svg">
<path d="M40.625 19.5H37.375V22.75H40.625C41.9175 22.7513 43.1568 23.2653 44.0707 24.1793C44.9847 25.0932 45.4987 26.3325 45.5 27.625V34.125H48.75V27.625C48.7474 25.4709 47.8906 23.4058 46.3674 21.8826C44.8442 20.3594 42.7791 19.5026 40.625 19.5ZM37.375 3.25C38.3392 3.25 39.2817 3.53591 40.0834 4.07159C40.8851 4.60726 41.5099 5.36863 41.8789 6.25942C42.2479 7.15021 42.3444 8.13041 42.1563 9.07607C41.9682 10.0217 41.5039 10.8904 40.8221 11.5721C40.1404 12.2539 39.2717 12.7182 38.3261 12.9063C37.3804 13.0944 36.4002 12.9979 35.5094 12.6289C34.6186 12.2599 33.8573 11.6351 33.3216 10.8334C32.7859 10.0317 32.5 9.08918 32.5 8.125C32.5 6.83207 33.0136 5.59209 33.9279 4.67785C34.8421 3.76361 36.0821 3.25 37.375 3.25ZM37.375 0C35.768 0 34.1971 0.476523 32.861 1.36931C31.5248 2.2621 30.4834 3.53105 29.8685 5.0157C29.2535 6.50035 29.0926 8.13401 29.4061 9.71011C29.7196 11.2862 30.4935 12.7339 31.6298 13.8702C32.7661 15.0065 34.2138 15.7804 35.7899 16.0939C37.366 16.4074 38.9997 16.2465 40.4843 15.6315C41.969 15.0166 43.2379 13.9752 44.1307 12.639C45.0235 11.3029 45.5 9.73197 45.5 8.125C45.5 5.97012 44.644 3.90349 43.1202 2.37976C41.5965 0.856024 39.5299 0 37.375 0ZM35.75 45.5H32.5V42.25C32.4987 40.9575 31.9847 39.7182 31.0707 38.8043C30.1568 37.8903 28.9175 37.3763 27.625 37.375H21.125C19.8325 37.3763 18.5932 37.8903 17.6793 38.8043C16.7653 39.7182 16.2513 40.9575 16.25 42.25V45.5H13V42.25C13.0026 40.0959 13.8594 38.0308 15.3826 36.5076C16.9058 34.9844 18.9709 34.1276 21.125 34.125H27.625C29.7791 34.1276 31.8442 34.9844 33.3674 36.5076C34.8906 38.0308 35.7474 40.0959 35.75 42.25V45.5ZM24.375 17.875C25.3392 17.875 26.2817 18.1609 27.0834 18.6966C27.8851 19.2323 28.5099 19.9936 28.8789 20.8844C29.2479 21.7752 29.3444 22.7554 29.1563 23.7011C28.9682 24.6467 28.5039 25.5154 27.8221 26.1971C27.1404 26.8789 26.2717 27.3432 25.3261 27.5313C24.3804 27.7194 23.4002 27.6229 22.5094 27.2539C21.6186 26.8849 20.8573 26.2601 20.3216 25.4584C19.7859 24.6567 19.5 23.7142 19.5 22.75C19.5 21.4571 20.0136 20.2171 20.9279 19.3029C21.8421 18.3886 23.0821 17.875 24.375 17.875ZM24.375 14.625C22.768 14.625 21.1971 15.1015 19.861 15.9943C18.5248 16.8871 17.4834 18.156 16.8685 19.6407C16.2535 21.1253 16.0926 22.759 16.4061 24.3351C16.7196 25.9112 17.4935 27.3589 18.6298 28.4952C19.7661 29.6315 21.2138 30.4054 22.7899 30.7189C24.366 31.0324 25.9997 30.8715 27.4843 30.2565C28.969 29.6416 30.2379 28.6002 31.1307 27.264C32.0235 25.9279 32.5 24.357 32.5 22.75C32.5 20.5951 31.644 18.5285 30.1202 17.0048C28.5965 15.481 26.5299 14.625 24.375 14.625ZM11.375 19.5H8.125C5.97091 19.5026 3.90578 20.3594 2.38261 21.8826C0.859433 23.4058 0.00258027 25.4709 0 27.625V34.125H3.25V27.625C3.25129 26.3325 3.76532 25.0932 4.67928 24.1793C5.59324 23.2653 6.83247 22.7513 8.125 22.75H11.375V19.5ZM11.375 3.25C12.3392 3.25 13.2817 3.53591 14.0834 4.07159C14.8851 4.60726 15.5099 5.36863 15.8789 6.25942C16.2479 7.15021 16.3444 8.13041 16.1563 9.07607C15.9682 10.0217 15.5039 10.8904 14.8221 11.5721C14.1404 12.2539 13.2717 12.7182 12.3261 12.9063C11.3804 13.0944 10.4002 12.9979 9.50942 12.6289C8.61863 12.2599 7.85726 11.6351 7.32159 10.8334C6.78591 10.0317 6.5 9.08918 6.5 8.125C6.5 6.83207 7.01361 5.59209 7.92785 4.67785C8.84209 3.76361 10.0821 3.25 11.375 3.25ZM11.375 0C9.76803 0 8.19714 0.476523 6.86099 1.36931C5.52484 2.2621 4.48344 3.53105 3.86848 5.0157C3.25352 6.50035 3.09261 8.13401 3.40612 9.71011C3.71962 11.2862 4.49346 12.7339 5.62976 13.8702C6.76606 15.0065 8.2138 15.7804 9.78989 16.0939C11.366 16.4074 12.9997 16.2465 14.4843 15.6315C15.969 15.0166 17.2379 13.9752 18.1307 12.639C19.0235 11.3029 19.5 9.73197 19.5 8.125C19.5 5.97012 18.644 3.90349 17.1202 2.37976C15.5965 0.856024 13.5299 0 11.375 0Z" fill="black"/>
</svg>
