<svg width="53" height="52" viewBox="0 0 53 52" fill="none" xmlns="http://www.w3.org/2000/svg">
<path d="M26.8721 3.25C22.3726 3.25 17.9741 4.58426 14.2329 7.08407C10.4916 9.58387 7.57571 13.1369 5.85382 17.294C4.13193 21.451 3.6814 26.0252 4.55922 30.4383C5.43703 34.8514 7.60376 38.905 10.7854 42.0867C13.967 45.2683 18.0207 47.4351 22.4338 48.3129C26.8468 49.1907 31.4211 48.7402 35.5781 47.0183C39.7351 45.2964 43.2882 42.3804 45.788 38.6392C48.2878 34.898 49.6221 30.4995 49.6221 26C49.6221 19.9663 47.2252 14.1798 42.9588 9.91332C38.6923 5.64687 32.9058 3.25 26.8721 3.25ZM46.3721 24.375H36.6221C36.4324 18.3903 34.8819 12.5274 32.0883 7.23125C35.9373 8.28408 39.3705 10.4924 41.9248 13.5581C44.4791 16.6238 46.0313 20.3993 46.3721 24.375ZM26.8721 45.5C26.5096 45.5243 26.1458 45.5243 25.7833 45.5C22.4168 40.1313 20.5484 33.9595 20.3721 27.625H33.3721C33.2104 33.9549 31.359 40.1264 28.0096 45.5C27.6309 45.5266 27.2508 45.5266 26.8721 45.5ZM20.3721 24.375C20.5337 18.0451 22.3852 11.8736 25.7346 6.5C26.4581 6.41869 27.1885 6.41869 27.9121 6.5C31.2958 11.8638 33.1811 18.036 33.3721 24.375H20.3721ZM21.6071 7.23125C18.8304 12.5314 17.2967 18.3941 17.1221 24.375H7.37208C7.71285 20.3993 9.26511 16.6238 11.8194 13.5581C14.3736 10.4924 17.8069 8.28408 21.6558 7.23125H21.6071ZM7.45333 27.625H17.2033C17.3729 33.6046 18.9011 39.4672 21.6721 44.7687C17.8352 43.7046 14.4161 41.4914 11.8742 38.4267C9.33237 35.3619 7.78962 31.5925 7.45333 27.625ZM32.0883 44.7687C34.8819 39.4726 36.4324 33.6097 36.6221 27.625H46.3721C46.0313 31.6007 44.4791 35.3763 41.9248 38.4419C39.3705 41.5076 35.9373 43.7159 32.0883 44.7687Z" fill="black"/>
</svg>
