<svg width="51" height="50" viewBox="0 0 51 50" fill="none" xmlns="http://www.w3.org/2000/svg">
<path d="M40.6587 25H27.3274L19.5149 15.625H7.84619C6.60337 15.6262 5.41181 16.1205 4.533 16.9993C3.65419 17.8781 3.15993 19.0697 3.15869 20.3125V29.6875C3.15869 30.5163 3.48793 31.3112 4.07398 31.8972C4.66003 32.4833 5.45489 32.8125 6.28369 32.8125V43.75C6.28369 44.5788 6.61293 45.3737 7.19898 45.9597C7.78503 46.5458 8.57989 46.875 9.40869 46.875H15.6587C16.4875 46.875 17.2823 46.5458 17.8684 45.9597C18.4545 45.3737 18.7837 44.5788 18.7837 43.75V32.8125H15.6587V43.75H9.40869V29.6875H6.28369V20.3125C6.28369 19.8981 6.44831 19.5007 6.74134 19.2076C7.03436 18.9146 7.43179 18.75 7.84619 18.75H18.0524L25.8649 28.125H40.6587C41.0731 28.125 41.4705 28.2896 41.7635 28.5826C42.0566 28.8757 42.2212 29.2731 42.2212 29.6875V34.375H39.0962V43.75H34.4087V34.375H31.2837V43.75C31.2837 44.5788 31.6129 45.3737 32.199 45.9597C32.785 46.5458 33.5799 46.875 34.4087 46.875H39.0962C39.925 46.875 40.7198 46.5458 41.3059 45.9597C41.892 45.3737 42.2212 44.5788 42.2212 43.75V37.5C43.05 37.5 43.8448 37.1708 44.4309 36.5847C45.017 35.9987 45.3462 35.2038 45.3462 34.375V29.6875C45.345 28.4447 44.8507 27.2531 43.9719 26.3743C43.0931 25.4955 41.9015 25.0012 40.6587 25Z" fill="black"/>
<path d="M36.7524 23.4375C35.6708 23.4375 34.6135 23.1168 33.7142 22.5159C32.8148 21.9149 32.1139 21.0608 31.7 20.0616C31.2861 19.0623 31.1778 17.9627 31.3888 16.9019C31.5998 15.841 32.1206 14.8666 32.8855 14.1018C33.6503 13.3369 34.6247 12.8161 35.6855 12.6051C36.7464 12.3941 37.846 12.5024 38.8452 12.9163C39.8445 13.3302 40.6986 14.0311 41.2995 14.9305C41.9005 15.8298 42.2212 16.8871 42.2212 17.9688C42.2195 19.4186 41.6428 20.8087 40.6176 21.8339C39.5924 22.8591 38.2023 23.4358 36.7524 23.4375ZM36.7524 15.625C36.2889 15.625 35.8358 15.7625 35.4503 16.02C35.0649 16.2775 34.7645 16.6436 34.5871 17.0718C34.4097 17.5001 34.3633 17.9714 34.4537 18.426C34.5442 18.8806 34.7674 19.2983 35.0952 19.626C35.4229 19.9538 35.8406 20.177 36.2952 20.2675C36.7498 20.3579 37.2211 20.3115 37.6494 20.1341C38.0776 19.9567 38.4437 19.6563 38.7012 19.2709C38.9587 18.8854 39.0962 18.4323 39.0962 17.9688C39.0962 17.3472 38.8493 16.751 38.4097 16.3115C37.9702 15.8719 37.374 15.625 36.7524 15.625ZM12.5337 14.0625C11.2976 14.0625 10.0892 13.6959 9.06138 13.0092C8.03357 12.3224 7.23249 11.3463 6.75945 10.2043C6.2864 9.06224 6.16263 7.80557 6.40379 6.59319C6.64494 5.38081 7.2402 4.26716 8.11428 3.39309C8.98835 2.51901 10.102 1.92375 11.3144 1.68259C12.5268 1.44144 13.7834 1.56521 14.9255 2.03826C16.0675 2.5113 17.0436 3.31238 17.7304 4.34019C18.4171 5.368 18.7837 6.57637 18.7837 7.8125C18.782 9.4696 18.123 11.0583 16.9513 12.2301C15.7795 13.4018 14.1908 14.0608 12.5337 14.0625ZM12.5337 4.6875C11.9156 4.6875 11.3114 4.87078 10.7975 5.21416C10.2836 5.55754 9.88309 6.0456 9.64657 6.61662C9.41005 7.18764 9.34816 7.81597 9.46874 8.42216C9.58932 9.02835 9.88695 9.58517 10.324 10.0222C10.761 10.4593 11.3178 10.7569 11.924 10.8775C12.5302 10.998 13.1586 10.9362 13.7296 10.6996C14.3006 10.4631 14.7887 10.0626 15.132 9.54866C15.4754 9.03476 15.6587 8.43057 15.6587 7.8125C15.6587 6.9837 15.3295 6.18885 14.7434 5.60279C14.1574 5.01674 13.3625 4.6875 12.5337 4.6875Z" fill="black"/>
</svg>
